HIERARCHY
ROOT joint_0
{
	OFFSET 0.000000 0.000000 0.000000
	CHANNELS 6 Xposition Yposition Zposition Zrotation Yrotation Xrotation 
	JOINT joint_1
	{
		OFFSET 4.520508 -1.939880 86.268921
		CHANNELS 3 Zrotation Yrotation Xrotation
		JOINT joint_2
		{
			OFFSET -4.459717 -0.438538 78.934082
			CHANNELS 3 Zrotation Yrotation Xrotation
			JOINT joint_3
			{
				OFFSET -5.197754 -0.781128 78.796997
				CHANNELS 3 Zrotation Yrotation Xrotation
				JOINT joint_4
				{
					OFFSET 2.952026 -3.710571 109.812988
					CHANNELS 3 Zrotation Yrotation Xrotation
					JOINT joint_5
					{
						OFFSET 24.716797 -5.488037 87.903931
						CHANNELS 3 Zrotation Yrotation Xrotation
						End Site
						{
							OFFSET 0.000000 0.000000 0.000000
						}
					}
				}
				JOINT joint_6
				{
					OFFSET -3.154419 -25.484680 60.934937
					CHANNELS 3 Zrotation Yrotation Xrotation
					JOINT joint_7
					{
						OFFSET -28.997192 -144.472229 -32.671997
						CHANNELS 3 Zrotation Yrotation Xrotation
						JOINT joint_8
						{
							OFFSET 19.867676 -18.614380 -249.897949
							CHANNELS 3 Zrotation Yrotation Xrotation
							JOINT joint_9
							{
								OFFSET 5.281982 -13.816650 -264.993042
								CHANNELS 3 Zrotation Yrotation Xrotation
								End Site
								{
									OFFSET 0.000000 0.000000 0.000000
								}
							}
						}
					}
				}
				JOINT joint_10
				{
					OFFSET 6.494995 21.336792 62.257935
					CHANNELS 3 Zrotation Yrotation Xrotation
					JOINT joint_11
					{
						OFFSET 31.106567 145.200745 -27.007935
						CHANNELS 3 Zrotation Yrotation Xrotation
						JOINT joint_12
						{
							OFFSET 29.119141 24.684326 -248.460083
							CHANNELS 3 Zrotation Yrotation Xrotation
							JOINT joint_13
							{
								OFFSET 21.220093 31.248413 -262.703979
								CHANNELS 3 Zrotation Yrotation Xrotation
								End Site
								{
									OFFSET 0.000000 0.000000 0.000000
								}
							}
						}
					}
				}
			}
		}
	}
	JOINT joint_14
	{
		OFFSET -15.458496 -88.861694 -109.593018
		CHANNELS 3 Zrotation Yrotation Xrotation
		JOINT joint_15
		{
			OFFSET -6.193359 6.837952 -506.710999
			CHANNELS 3 Zrotation Yrotation Xrotation
			JOINT joint_16
			{
				OFFSET -35.096680 13.289795 -435.677025
				CHANNELS 3 Zrotation Yrotation Xrotation
				JOINT joint_17
				{
					OFFSET 158.491211 -33.916565 -71.771002
					CHANNELS 3 Zrotation Yrotation Xrotation
					End Site
					{
						OFFSET 0.000000 0.000000 0.000000
					}
				}
			}
		}
	}
	JOINT joint_18
	{
		OFFSET 23.116943 86.574158 -110.082031
		CHANNELS 3 Zrotation Yrotation Xrotation
		JOINT joint_19
		{
			OFFSET -6.125854 -0.283569 -506.757019
			CHANNELS 3 Zrotation Yrotation Xrotation
			JOINT joint_20
			{
				OFFSET -63.240234 11.589966 -432.537994
				CHANNELS 3 Zrotation Yrotation Xrotation
				JOINT joint_21
				{
					OFFSET 156.074219 -41.487305 -73.077999
					CHANNELS 3 Zrotation Yrotation Xrotation
					End Site
					{
						OFFSET 0.000000 0.000000 0.000000
					}
				}
			}
		}
	}
}
MOTION
Frames: 6
Frame Time: 0.016667
-457.828461 908.289917 1142.232056 9.471143 -0.806156 -0.080742 0.502888 0.123554 -0.501297 0.537578 -0.058980 0.135358 0.523006 0.026887 -0.095694 -0.586234 6.902580 3.268167 0.000000 0.000000 0.000000 2.711286 0.232646 -1.255209 0.228812 0.225274 1.610558 -0.010721 -0.726138 -2.205360 0.000000 0.000000 0.000000 -2.246565 -0.038731 -0.560600 0.061382 0.030058 1.123063 -0.292273 -2.076122 -0.159807 0.000000 0.000000 0.000000 -1.786576 -2.782333 -2.175124 -1.704296 2.563591 0.502463 -1.634796 2.238350 -0.257752 0.000000 0.000000 0.000000 0.479297 -2.762202 0.490264 0.507631 4.339003 -0.100551 0.390800 0.602530 0.343235 0.000000 0.000000 0.000000 
-458.021454 908.468018 1142.237061 9.460175 -0.814002 -0.090003 0.498967 0.179907 -0.494690 0.532560 -0.067280 0.132815 0.518406 0.035120 -0.093517 -0.582824 6.888359 3.254728 0.000000 0.000000 0.000000 2.714523 0.220769 -1.266907 0.228718 0.212342 1.607466 -0.009536 -0.742011 -2.199262 0.000000 0.000000 0.000000 -2.242718 -0.046394 -0.566978 0.061412 0.018687 1.130660 -0.292113 -2.074677 -0.161455 0.000000 0.000000 0.000000 -1.781508 -2.787763 -2.171158 -1.698749 2.567805 0.490370 -1.630246 2.258532 -0.251341 0.000000 0.000000 0.000000 0.479529 -2.761897 0.487802 0.507891 4.339918 -0.097302 0.391418 0.608528 0.345121 0.000000 0.000000 0.000000 
-458.200226 908.661011 1142.249023 9.453708 -0.816940 -0.100042 0.494127 0.232372 -0.485637 0.526513 -0.078085 0.130203 0.512792 0.045797 -0.091715 -0.579407 6.878724 3.241501 0.000000 0.000000 0.000000 2.714984 0.211328 -1.280456 0.228942 0.200106 1.607726 -0.008403 -0.758690 -2.195830 0.000000 0.000000 0.000000 -2.237268 -0.052754 -0.572102 0.061295 0.009192 1.135307 -0.293407 -2.078858 -0.170955 0.000000 0.000000 0.000000 -1.777062 -2.789475 -2.169255 -1.694261 2.555889 0.482767 -1.625984 2.284523 -0.243820 0.000000 0.000000 0.000000 0.482011 -2.768025 0.485618 0.510487 4.343027 -0.096267 0.393917 0.616030 0.348290 0.000000 0.000000 0.000000 
-458.376282 908.864441 1142.265991 9.450076 -0.816713 -0.109886 0.489486 0.283882 -0.476102 0.520728 -0.087878 0.128630 0.507356 0.054491 -0.089858 -0.575933 6.874068 3.228278 0.000000 0.000000 0.000000 2.711721 0.204173 -1.295370 0.229292 0.188639 1.609874 -0.007244 -0.776457 -2.193431 0.000000 0.000000 0.000000 -2.232751 -0.058400 -0.577697 0.061229 0.000662 1.139177 -0.295557 -2.085846 -0.185846 0.000000 0.000000 0.000000 -1.773347 -2.789828 -2.169179 -1.690727 2.534711 0.477258 -1.622252 2.314512 -0.235683 0.000000 0.000000 0.000000 0.485790 -2.778276 0.482950 0.514432 4.346768 -0.096921 0.397437 0.625409 0.352436 0.000000 0.000000 0.000000 
-458.567200 909.074097 1142.281982 9.446126 -0.810403 -0.118205 0.486272 0.335622 -0.466395 0.516297 -0.099108 0.125792 0.503387 0.064240 -0.087759 -0.572874 6.864678 3.215648 0.000000 0.000000 0.000000 2.708764 0.197226 -1.309181 0.229484 0.177799 1.611457 -0.005968 -0.795579 -2.190003 0.000000 0.000000 0.000000 -2.227981 -0.066066 -0.583783 0.060989 -0.010136 1.143340 -0.297443 -2.091352 -0.199769 0.000000 0.000000 0.000000 -1.769271 -2.797386 -2.170414 -1.686648 2.512366 0.470297 -1.618068 2.346584 -0.226894 0.000000 0.000000 0.000000 0.489977 -2.795720 0.479399 0.518897 4.350064 -0.100466 0.401042 0.634645 0.356585 0.000000 0.000000 0.000000 
-458.782715 909.286621 1142.298950 9.440916 -0.794481 -0.123408 0.485710 0.386079 -0.460480 0.514828 -0.110656 0.123984 0.502350 0.075381 -0.085349 -0.570868 6.848249 3.205229 0.000000 0.000000 0.000000 2.705212 0.189985 -1.319397 0.229061 0.168195 1.608921 -0.004267 -0.819825 -2.183531 0.000000 0.000000 0.000000 -2.225187 -0.077441 -0.592491 0.060568 -0.025381 1.149905 -0.298974 -2.095377 -0.211514 0.000000 0.000000 0.000000 -1.764948 -2.818548 -2.173913 -1.681894 2.492258 0.460829 -1.613445 2.381734 -0.217243 0.000000 0.000000 0.000000 0.493337 -2.823646 0.474098 0.522688 4.350898 -0.107765 0.403466 0.645448 0.360597 0.000000 0.000000 0.000000 
